<svg width="75" height="74" viewBox="0 0 75 74" fill="none" xmlns="http://www.w3.org/2000/svg">
<path fill-rule="evenodd" clip-rule="evenodd" d="M71.5202 16.5717C75.2735 12.8184 75.2735 6.7331 71.5202 2.9798C67.7669 -0.773509 61.6816 -0.773509 57.9283 2.97979L37.5404 23.3677L17.1525 2.97979C13.3992 -0.773518 7.3139 -0.773515 3.5606 2.97979C-0.19271 6.73309 -0.192714 12.8184 3.56059 16.5717L23.9485 36.9596L3.56059 57.3475C-0.192721 61.1008 -0.19272 67.1861 3.56058 70.9394C7.31389 74.6927 13.3992 74.6927 17.1525 70.9394L37.5404 50.5515L57.9283 70.9394C61.6816 74.6927 67.7669 74.6927 71.5202 70.9394C75.2735 67.1861 75.2735 61.1008 71.5202 57.3475L51.1323 36.9596L71.5202 16.5717Z" fill="#FF5925"/>
</svg>
